<svg width="280" height="353" xmlns="http://www.w3.org/2000/svg" xmlns:xlink="http://www.w3.org/1999/xlink" xml:space="preserve" overflow="hidden"><defs><radialGradient cx="95596.5" cy="95596.5" r="135194" fx="95596.5" fy="95596.5" gradientUnits="userSpaceOnUse" spreadMethod="pad" id="fill0" gradientTransform="matrix(0.000360892 0 0 0.000360892 2334 2013)"><stop offset="0" stop-color="#F2F2F2" stop-opacity="1"/><stop offset="0.42" stop-color="#02C5D0" stop-opacity="1"/><stop offset="1" stop-color="#02C5D0" stop-opacity="1"/></radialGradient></defs><g transform="translate(-2227 -1874)"><g><path d="M2503.52 2035 2505 2054.54C2505 2148.68 2428.47 2225 2334.07 2225L2310 2223.18 2503.52 2035Z" fill="#3B4646" fill-rule="evenodd" fill-opacity="1"/><path d="M2400.93 1878 2425 1879.82 2233.49 2066 2232 2046.41C2232 1953.4 2307.63 1878 2400.93 1878Z" fill="#3B4646" fill-rule="evenodd" fill-opacity="1"/><path d="M2408.95 1920 2427.39 1927.25C2433.36 1930.12 2439.09 1933.41 2444.54 1937.08L2459 1948.98 2389.65 2016.45 2368.18 1995.04 2315.81 2047.29 2336.61 2068.04 2264.69 2138 2254.94 2126.22C2247.58 2115.34 2241.75 2103.36 2237.76 2090.56L2237 2087.27Z" fill="#859798" fill-rule="evenodd" fill-opacity="1"/><path d="M2472.27 1962 2482.01 1973.84C2489.38 1984.75 2495.21 1996.79 2499.19 2009.65L2500 2013.15 2328.22 2181 2328.2 2181C2315.37 2177 2303.35 2171.16 2292.46 2163.78L2278 2151.83 2350.14 2081.34 2368.8 2100.03 2421.16 2047.56 2403.16 2029.53Z" fill="#859798" fill-rule="evenodd" fill-opacity="1"/><path d="M2334 2047.5 2368.5 2013 2403 2047.5 2368.5 2082Z" fill="url(#fill0)" fill-rule="evenodd"/></g></g></svg>